<svg width="220" height="66" fill="none" xmlns="http://www.w3.org/2000/svg"><path d="M218.959 57.81v.056l.006.056c.408 3.62-2.894 7.078-7.316 7.078H8.309C4 65 1 61.619 1 57.81V8.19C1 4.42 4.449 1 8.31 1h203.339c4.311 0 7.31 3.381 7.31 7.19v49.62z" stroke="#fff" stroke-width="2"/><path d="M17.738 27.713c-3.37 5.977-1.444 14.712 2.408 20.23C22.072 50.7 23.998 53 26.887 53c1.445 0 2.408-.46 2.89-.92.962-.46 1.925-.919 3.851-.919 1.445 0 2.408.46 3.371.92.963.46 1.926.92 3.37.92 2.89 0 4.816-2.76 6.742-5.058 1.926-2.3 2.408-4.598 2.889-5.518v-.46c-.963-.46-5.297-2.298-5.297-7.816 0-4.597 3.37-6.896 4.334-7.356v-.46c-2.408-3.218-6.26-3.678-7.704-3.678h-.482c-1.926 0-3.37.46-4.815 1.38-1.445 0-2.408.46-2.89.46-.48 0-1.444-.46-2.407-.46-.963-.92-2.407-1.38-4.334-1.38-3.37 0-6.74 1.84-8.667 5.058z" fill="#fff"/><path d="M41.332 13c-1.926 0-4.815 1.38-6.26 3.218-1.444 1.38-2.889 3.679-2.407 6.437 0 0 0 .46.481.46h.482c1.926 0 4.334-.92 5.778-2.759 1.445-2.299 2.408-4.597 1.926-7.356zm30.376 3.2h3.878c1.017 0 1.918.21 2.702.63a4.578 4.578 0 011.848 1.75c.439.737.658 1.577.658 2.52 0 .943-.22 1.787-.658 2.534a4.609 4.609 0 01-1.848 1.736c-.784.42-1.685.63-2.702.63h-3.878v-9.8zm3.822 9.156c.905 0 1.703-.177 2.394-.532a3.9 3.9 0 001.596-1.512c.373-.644.56-1.381.56-2.212 0-.83-.187-1.568-.56-2.212a3.81 3.81 0 00-1.596-1.498c-.69-.364-1.489-.546-2.394-.546h-3.108v8.512h3.108zm10.376.7c-.69 0-1.316-.159-1.876-.476a3.457 3.457 0 01-1.302-1.316 3.878 3.878 0 01-.476-1.918c0-.71.16-1.344.476-1.904a3.43 3.43 0 011.302-1.33 3.738 3.738 0 011.876-.476c.691 0 1.312.159 1.862.476.56.317 1 .76 1.316 1.33.318.56.476 1.195.476 1.904 0 .71-.158 1.349-.476 1.918-.317.56-.756.999-1.316 1.316-.55.317-1.17.476-1.862.476zm0-.63c.56 0 1.06-.13 1.498-.392a2.75 2.75 0 001.05-1.092c.262-.467.392-.999.392-1.596 0-.597-.13-1.13-.392-1.596a2.75 2.75 0 00-1.05-1.092 2.87 2.87 0 00-1.498-.392c-.56 0-1.064.13-1.512.392a2.881 2.881 0 00-1.05 1.092c-.252.467-.378.999-.378 1.596 0 .597.126 1.13.378 1.596.262.467.612.83 1.05 1.092.448.261.952.392 1.512.392zm16.065-6.734L99.199 26h-.658l-2.464-6.342L93.599 26h-.644l-2.772-7.308h.672l2.436 6.524 2.492-6.524h.602l2.478 6.51 2.464-6.51h.644zm5.198-.056c.915 0 1.638.266 2.17.798s.798 1.297.798 2.296V26h-.7v-4.214c0-.821-.21-1.447-.63-1.876-.41-.43-.989-.644-1.736-.644-.858 0-1.535.257-2.03.77-.494.513-.742 1.204-.742 2.072V26h-.7v-7.308h.672v1.582a2.795 2.795 0 011.12-1.204c.504-.29 1.097-.434 1.778-.434zm5.85-3.024h.7V26h-.7V15.612zm6.507 10.444a3.737 3.737 0 01-1.876-.476 3.453 3.453 0 01-1.302-1.316c-.318-.57-.476-1.209-.476-1.918 0-.71.158-1.344.476-1.904a3.426 3.426 0 011.302-1.33 3.737 3.737 0 011.876-.476c.69 0 1.311.159 1.862.476a3.4 3.4 0 011.316 1.33c.317.56.476 1.195.476 1.904 0 .71-.159 1.349-.476 1.918a3.43 3.43 0 01-1.316 1.316 3.667 3.667 0 01-1.862.476zm0-.63c.56 0 1.059-.13 1.498-.392a2.75 2.75 0 001.05-1.092c.261-.467.392-.999.392-1.596 0-.597-.131-1.13-.392-1.596a2.75 2.75 0 00-1.05-1.092 2.871 2.871 0 00-1.498-.392c-.56 0-1.064.13-1.512.392a2.877 2.877 0 00-1.05 1.092c-.252.467-.378.999-.378 1.596 0 .597.126 1.13.378 1.596.261.467.611.83 1.05 1.092.448.261.952.392 1.512.392zm8.262-6.79c.905 0 1.601.233 2.086.7.485.457.728 1.134.728 2.03V26h-.672v-1.302a2.47 2.47 0 01-1.022 1.008c-.448.233-.985.35-1.61.35-.812 0-1.456-.191-1.932-.574-.467-.383-.7-.887-.7-1.512 0-.607.215-1.097.644-1.47.439-.383 1.134-.574 2.086-.574h2.506v-.588c0-.681-.187-1.2-.56-1.554-.364-.355-.901-.532-1.61-.532-.485 0-.952.084-1.4.252a3.507 3.507 0 00-1.12.672l-.35-.504a3.804 3.804 0 011.316-.756 4.672 4.672 0 011.61-.28zm-.392 6.846c.607 0 1.12-.14 1.54-.42.429-.28.751-.686.966-1.218v-1.372h-2.492c-.719 0-1.241.13-1.568.392-.317.261-.476.62-.476 1.078 0 .476.177.854.532 1.134.355.27.854.406 1.498.406zm12.6-9.87V26h-.686v-1.722a3.147 3.147 0 01-1.218 1.316c-.523.308-1.116.462-1.778.462a3.63 3.63 0 01-1.848-.476 3.453 3.453 0 01-1.302-1.316c-.308-.56-.462-1.2-.462-1.918 0-.719.154-1.358.462-1.918a3.328 3.328 0 011.302-1.316 3.63 3.63 0 011.848-.476c.653 0 1.236.154 1.75.462a3.28 3.28 0 011.232 1.288v-4.774h.7zm-3.64 9.814c.56 0 1.059-.13 1.498-.392a2.75 2.75 0 001.05-1.092c.261-.467.392-.999.392-1.596 0-.597-.131-1.13-.392-1.596a2.75 2.75 0 00-1.05-1.092 2.871 2.871 0 00-1.498-.392c-.56 0-1.064.13-1.512.392a2.877 2.877 0 00-1.05 1.092c-.252.467-.378.999-.378 1.596 0 .597.126 1.13.378 1.596.261.467.611.83 1.05 1.092.448.261.952.392 1.512.392zm13.043.63a3.737 3.737 0 01-1.876-.476 3.453 3.453 0 01-1.302-1.316c-.318-.57-.476-1.209-.476-1.918 0-.71.158-1.344.476-1.904a3.426 3.426 0 011.302-1.33 3.737 3.737 0 011.876-.476c.69 0 1.311.159 1.862.476a3.4 3.4 0 011.316 1.33c.317.56.476 1.195.476 1.904 0 .71-.159 1.349-.476 1.918a3.43 3.43 0 01-1.316 1.316 3.667 3.667 0 01-1.862.476zm0-.63c.56 0 1.059-.13 1.498-.392a2.75 2.75 0 001.05-1.092c.261-.467.392-.999.392-1.596 0-.597-.131-1.13-.392-1.596a2.75 2.75 0 00-1.05-1.092 2.871 2.871 0 00-1.498-.392c-.56 0-1.064.13-1.512.392a2.877 2.877 0 00-1.05 1.092c-.252.467-.378.999-.378 1.596 0 .597.126 1.13.378 1.596.261.467.611.83 1.05 1.092.448.261.952.392 1.512.392zm9.395-6.79c.915 0 1.638.266 2.17.798s.798 1.297.798 2.296V26h-.7v-4.214c0-.821-.21-1.447-.63-1.876-.41-.43-.989-.644-1.736-.644-.858 0-1.535.257-2.03.77-.494.513-.742 1.204-.742 2.072V26h-.7v-7.308h.672v1.582a2.795 2.795 0 011.12-1.204c.504-.29 1.097-.434 1.778-.434zm13.072 6.902a1.821 1.821 0 01-.672.392 2.683 2.683 0 01-.826.126c-.635 0-1.125-.173-1.47-.518-.345-.355-.518-.845-.518-1.47v-4.774h-1.344v-.602h1.344v-1.596h.7v1.596h2.324v.602h-2.324v4.704c0 .476.112.84.336 1.092.233.243.574.364 1.022.364.457 0 .835-.135 1.134-.406l.294.49zm5.522-6.902c.915 0 1.638.266 2.17.798s.798 1.297.798 2.296V26h-.7v-4.214c0-.821-.21-1.447-.63-1.876-.411-.43-.989-.644-1.736-.644-.859 0-1.535.257-2.03.77-.495.513-.742 1.204-.742 2.072V26h-.7V15.612h.7v4.606a2.64 2.64 0 011.12-1.162c.495-.28 1.078-.42 1.75-.42zm12.038 3.878h-6.286c.018.57.163 1.078.434 1.526.27.439.634.78 1.092 1.022a3.34 3.34 0 001.568.364c.476 0 .914-.084 1.316-.252a2.63 2.63 0 001.022-.77l.406.462a3.115 3.115 0 01-1.204.882 3.882 3.882 0 01-1.554.308c-.728 0-1.377-.159-1.946-.476a3.492 3.492 0 01-1.344-1.316c-.318-.56-.476-1.2-.476-1.918 0-.71.149-1.344.448-1.904a3.393 3.393 0 011.26-1.33 3.43 3.43 0 011.792-.476 3.36 3.36 0 011.778.476c.532.308.947.742 1.246 1.302.308.56.462 1.195.462 1.904l-.014.196zm-3.472-3.262c-.514 0-.976.117-1.386.35a2.594 2.594 0 00-.994.966 3.14 3.14 0 00-.42 1.4h5.6a2.931 2.931 0 00-.42-1.4 2.743 2.743 0 00-.994-.966 2.758 2.758 0 00-1.386-.35zM78.768 46.408h-5.6L72.064 49H69.92l5.04-11.2h2.048L82.064 49h-2.176l-1.12-2.592zm-.688-1.632l-2.112-4.896-2.096 4.896h4.208zm9.952-4.416c.832 0 1.574.181 2.224.544a3.91 3.91 0 011.552 1.536c.374.661.56 1.424.56 2.288 0 .864-.186 1.632-.56 2.304a3.91 3.91 0 01-1.552 1.536c-.65.363-1.392.544-2.224.544-1.152 0-2.064-.384-2.736-1.152v4.144h-2V40.456H85.2v1.12c.331-.405.736-.71 1.216-.912a4.192 4.192 0 011.616-.304zm-.224 7.04c.736 0 1.339-.245 1.808-.736.48-.49.72-1.136.72-1.936s-.24-1.445-.72-1.936c-.469-.49-1.072-.736-1.808-.736-.48 0-.912.112-1.296.336a2.315 2.315 0 00-.912.928c-.224.405-.336.875-.336 1.408 0 .533.112 1.003.336 1.408.224.405.528.72.912.944.384.213.816.32 1.296.32zm11.193-7.04c.832 0 1.573.181 2.224.544a3.91 3.91 0 011.552 1.536c.373.661.56 1.424.56 2.288 0 .864-.187 1.632-.56 2.304a3.91 3.91 0 01-1.552 1.536c-.651.363-1.392.544-2.224.544-1.152 0-2.064-.384-2.736-1.152v4.144h-2V40.456h1.904v1.12c.33-.405.736-.71 1.216-.912a4.193 4.193 0 011.616-.304zm-.224 7.04c.736 0 1.339-.245 1.808-.736.48-.49.72-1.136.72-1.936s-.24-1.445-.72-1.936c-.469-.49-1.072-.736-1.808-.736-.48 0-.912.112-1.296.336a2.315 2.315 0 00-.912.928c-.224.405-.336.875-.336 1.408 0 .533.112 1.003.336 1.408.224.405.528.72.912.944.384.213.816.32 1.296.32zm14.543 1.76a8.622 8.622 0 01-2.512-.368c-.8-.245-1.435-.57-1.904-.976l.72-1.616c.458.363 1.018.661 1.68.896a6.342 6.342 0 002.016.336c.832 0 1.45-.133 1.856-.4.416-.267.624-.619.624-1.056a.99.99 0 00-.352-.784 2.273 2.273 0 00-.864-.496 19.44 19.44 0 00-1.44-.4c-.854-.203-1.547-.405-2.08-.608a3.52 3.52 0 01-1.36-.944c-.374-.437-.56-1.024-.56-1.76 0-.619.165-1.179.496-1.68.341-.512.848-.917 1.52-1.216.682-.299 1.514-.448 2.496-.448.682 0 1.354.085 2.016.256.661.17 1.232.416 1.712.736l-.656 1.616a6.482 6.482 0 00-1.536-.656 5.752 5.752 0 00-1.552-.224c-.822 0-1.435.139-1.84.416-.395.277-.592.645-.592 1.104 0 .32.112.581.336.784.234.203.528.363.88.48.352.117.832.25 1.44.4.832.192 1.514.395 2.048.608.533.203.986.517 1.36.944.384.427.576 1.003.576 1.728a2.92 2.92 0 01-.512 1.68c-.331.501-.838.901-1.52 1.2-.683.299-1.515.448-2.496.448zm11.534-.624a2.34 2.34 0 01-.864.432c-.33.096-.682.144-1.056.144-.938 0-1.664-.245-2.176-.736-.512-.49-.768-1.205-.768-2.144V42.12h-1.408v-1.6h1.408v-1.952h2v1.952h2.288v1.6h-2.288v4.064c0 .416.102.736.304.96.203.213.496.32.88.32.448 0 .822-.117 1.12-.352l.56 1.424zm5.204.576c-.864 0-1.642-.187-2.336-.56A4.16 4.16 0 01126.09 47c-.384-.672-.576-1.43-.576-2.272 0-.843.192-1.595.576-2.256a4.16 4.16 0 011.632-1.552c.694-.373 1.472-.56 2.336-.56.875 0 1.659.187 2.352.56a4.04 4.04 0 011.616 1.552c.395.661.592 1.413.592 2.256 0 .843-.197 1.6-.592 2.272a4.04 4.04 0 01-1.616 1.552c-.693.373-1.477.56-2.352.56zm0-1.712c.736 0 1.344-.245 1.824-.736.48-.49.72-1.136.72-1.936s-.24-1.445-.72-1.936c-.48-.49-1.088-.736-1.824-.736s-1.344.245-1.824.736c-.469.49-.704 1.136-.704 1.936s.235 1.445.704 1.936c.48.49 1.088.736 1.824.736zm8.377-5.696c.576-.896 1.589-1.344 3.04-1.344v1.904a2.548 2.548 0 00-.464-.048c-.779 0-1.387.23-1.824.688-.438.448-.656 1.099-.656 1.952V49h-2v-8.544h1.904v1.248zm12.69 3.072c0 .139-.01.336-.032.592h-6.704c.118.63.422 1.13.912 1.504.502.363 1.12.544 1.856.544.939 0 1.712-.31 2.32-.928l1.072 1.232a3.61 3.61 0 01-1.456 1.04c-.586.235-1.248.352-1.984.352-.938 0-1.765-.187-2.48-.56A4.11 4.11 0 01142.965 47c-.384-.672-.576-1.43-.576-2.272 0-.832.187-1.579.56-2.24a4.069 4.069 0 011.584-1.568c.672-.373 1.43-.56 2.272-.56.832 0 1.574.187 2.224.56a3.77 3.77 0 011.536 1.552c.374.661.56 1.43.56 2.304zm-4.32-2.816c-.64 0-1.184.192-1.632.576-.437.373-.704.875-.8 1.504h4.848c-.085-.619-.346-1.12-.784-1.504-.437-.384-.981-.576-1.632-.576z" fill="#fff"/></svg>