<svg width="220" height="66" fill="none" xmlns="http://www.w3.org/2000/svg"><path d="M211.689 65H8.311C4 65 1 61.618 1 57.81V8.19C1 3.976 4.41 1 8.311 1H211.69c4.311 0 7.31 3.382 7.31 7.19v49.62c0 3.77-3.449 7.19-7.311 7.19z" stroke="#fff" stroke-width="2"/><path d="M78.807 23.242h-5.684L71.877 26h-.77l4.508-9.8h.714l4.508 9.8h-.77l-1.26-2.758zm-.266-.602l-2.576-5.656-2.562 5.656h5.138zm9.348-3.948L84.585 26h-.714l-3.29-7.308h.742l2.912 6.538 2.94-6.538h.714zm3.776-.056c.905 0 1.6.233 2.086.7.485.457.728 1.134.728 2.03V26h-.672v-1.302c-.234.43-.574.765-1.022 1.008-.448.233-.985.35-1.61.35-.812 0-1.456-.191-1.932-.574-.467-.383-.7-.887-.7-1.512 0-.607.214-1.097.644-1.47.439-.383 1.134-.574 2.086-.574h2.506v-.588c0-.681-.187-1.2-.56-1.554-.364-.355-.9-.532-1.61-.532-.485 0-.952.084-1.4.252a3.51 3.51 0 00-1.12.672l-.35-.504a3.8 3.8 0 011.316-.756 4.674 4.674 0 011.61-.28zm-.392 6.846c.606 0 1.12-.14 1.54-.42.43-.28.751-.686.966-1.218v-1.372h-2.492c-.719 0-1.242.13-1.568.392-.317.261-.476.62-.476 1.078 0 .476.177.854.532 1.134.354.27.854.406 1.498.406zm6.09-6.79h.7V26h-.7v-7.308zm.35-1.778a.58.58 0 01-.406-.154.553.553 0 01-.168-.406c0-.159.056-.294.168-.406a.553.553 0 01.406-.168c.159 0 .294.056.406.168a.508.508 0 01.168.392.553.553 0 01-.168.406.553.553 0 01-.406.168zm3.3-1.302h.7V26h-.7V15.612zm6.115 3.024c.905 0 1.6.233 2.086.7.485.457.728 1.134.728 2.03V26h-.672v-1.302c-.234.43-.574.765-1.022 1.008-.448.233-.985.35-1.61.35-.812 0-1.456-.191-1.932-.574-.467-.383-.7-.887-.7-1.512 0-.607.214-1.097.644-1.47.438-.383 1.134-.574 2.086-.574h2.506v-.588c0-.681-.187-1.2-.56-1.554-.364-.355-.901-.532-1.61-.532-.486 0-.952.084-1.4.252a3.507 3.507 0 00-1.12.672l-.35-.504a3.794 3.794 0 011.316-.756 4.672 4.672 0 011.61-.28zm-.392 6.846c.606 0 1.12-.14 1.54-.42.429-.28.751-.686.966-1.218v-1.372h-2.492c-.719 0-1.242.13-1.568.392-.318.261-.476.62-.476 1.078 0 .476.177.854.532 1.134.354.27.854.406 1.498.406zm9.758-6.846c.681 0 1.297.159 1.848.476.55.308.98.747 1.288 1.316.317.56.476 1.2.476 1.918 0 .719-.159 1.358-.476 1.918a3.36 3.36 0 01-1.288 1.316 3.636 3.636 0 01-1.848.476 3.482 3.482 0 01-1.778-.462 3.247 3.247 0 01-1.218-1.316V26h-.672V15.612h.7v4.746a3.102 3.102 0 011.218-1.26 3.38 3.38 0 011.75-.462zm-.042 6.79c.56 0 1.064-.13 1.512-.392a2.75 2.75 0 001.05-1.092c.261-.467.392-.999.392-1.596 0-.597-.131-1.13-.392-1.596a2.75 2.75 0 00-1.05-1.092 2.945 2.945 0 00-1.512-.392c-.56 0-1.064.13-1.512.392a2.877 2.877 0 00-1.05 1.092c-.252.467-.378.999-.378 1.596 0 .597.126 1.13.378 1.596.261.467.611.83 1.05 1.092.448.261.952.392 1.512.392zm5.821-9.814h.7V26h-.7V15.612zm9.824 6.902h-6.286c.019.57.164 1.078.434 1.526.271.439.635.78 1.092 1.022.467.243.99.364 1.568.364.476 0 .915-.084 1.316-.252a2.619 2.619 0 001.022-.77l.406.462a3.1 3.1 0 01-1.204.882 3.882 3.882 0 01-1.554.308c-.728 0-1.376-.159-1.946-.476a3.506 3.506 0 01-1.344-1.316c-.317-.56-.476-1.2-.476-1.918 0-.71.15-1.344.448-1.904a3.393 3.393 0 011.26-1.33 3.433 3.433 0 011.792-.476c.663 0 1.256.159 1.778.476.532.308.948.742 1.246 1.302.308.56.462 1.195.462 1.904l-.014.196zm-3.472-3.262a2.76 2.76 0 00-1.386.35c-.41.224-.742.546-.994.966a3.17 3.17 0 00-.42 1.4h5.6a2.931 2.931 0 00-.42-1.4 2.735 2.735 0 00-.994-.966 2.752 2.752 0 00-1.386-.35zm12.104 6.804a3.737 3.737 0 01-1.876-.476 3.453 3.453 0 01-1.302-1.316c-.318-.57-.476-1.209-.476-1.918 0-.71.158-1.344.476-1.904a3.426 3.426 0 011.302-1.33 3.737 3.737 0 011.876-.476c.69 0 1.311.159 1.862.476a3.4 3.4 0 011.316 1.33c.317.56.476 1.195.476 1.904 0 .71-.159 1.349-.476 1.918a3.43 3.43 0 01-1.316 1.316 3.667 3.667 0 01-1.862.476zm0-.63c.56 0 1.059-.13 1.498-.392a2.75 2.75 0 001.05-1.092c.261-.467.392-.999.392-1.596 0-.597-.131-1.13-.392-1.596a2.75 2.75 0 00-1.05-1.092 2.871 2.871 0 00-1.498-.392c-.56 0-1.064.13-1.512.392a2.877 2.877 0 00-1.05 1.092c-.252.467-.378.999-.378 1.596 0 .597.126 1.13.378 1.596.261.467.611.83 1.05 1.092.448.261.952.392 1.512.392zm9.395-6.79c.915 0 1.638.266 2.17.798s.798 1.297.798 2.296V26h-.7v-4.214c0-.821-.21-1.447-.63-1.876-.41-.43-.989-.644-1.736-.644-.858 0-1.535.257-2.03.77-.494.513-.742 1.204-.742 2.072V26h-.7v-7.308h.672v1.582a2.795 2.795 0 011.12-1.204c.504-.29 1.097-.434 1.778-.434zm13.072 6.902a1.821 1.821 0 01-.672.392 2.683 2.683 0 01-.826.126c-.635 0-1.125-.173-1.47-.518-.345-.355-.518-.845-.518-1.47v-4.774h-1.344v-.602h1.344v-1.596h.7v1.596h2.324v.602h-2.324v4.704c0 .476.112.84.336 1.092.233.243.574.364 1.022.364.457 0 .835-.135 1.134-.406l.294.49zm5.522-6.902c.915 0 1.638.266 2.17.798s.798 1.297.798 2.296V26h-.7v-4.214c0-.821-.21-1.447-.63-1.876-.411-.43-.989-.644-1.736-.644-.859 0-1.535.257-2.03.77-.495.513-.742 1.204-.742 2.072V26h-.7V15.612h.7v4.606a2.64 2.64 0 011.12-1.162c.495-.28 1.078-.42 1.75-.42zm12.038 3.878h-6.286c.018.57.163 1.078.434 1.526.27.439.634.78 1.092 1.022a3.34 3.34 0 001.568.364c.476 0 .914-.084 1.316-.252a2.63 2.63 0 001.022-.77l.406.462a3.115 3.115 0 01-1.204.882 3.882 3.882 0 01-1.554.308c-.728 0-1.377-.159-1.946-.476a3.492 3.492 0 01-1.344-1.316c-.318-.56-.476-1.2-.476-1.918 0-.71.149-1.344.448-1.904a3.393 3.393 0 011.26-1.33 3.43 3.43 0 011.792-.476 3.36 3.36 0 011.778.476c.532.308.947.742 1.246 1.302.308.56.462 1.195.462 1.904l-.014.196zm-3.472-3.262c-.514 0-.976.117-1.386.35a2.594 2.594 0 00-.994.966 3.14 3.14 0 00-.42 1.4h5.6a2.931 2.931 0 00-.42-1.4 2.743 2.743 0 00-.994-.966 2.758 2.758 0 00-1.386-.35zM80.19 43.272h1.967v4.464a6.256 6.256 0 01-2.016 1.056 7.736 7.736 0 01-2.368.368c-1.141 0-2.17-.245-3.088-.736a5.585 5.585 0 01-2.16-2.064c-.523-.875-.784-1.861-.784-2.96s.261-2.085.784-2.96a5.471 5.471 0 012.16-2.048c.928-.501 1.968-.752 3.12-.752.939 0 1.792.155 2.56.464.768.31 1.413.763 1.936 1.36l-1.312 1.28c-.853-.853-1.883-1.28-3.088-1.28-.79 0-1.493.165-2.112.496a3.687 3.687 0 00-1.44 1.392c-.341.597-.512 1.28-.512 2.048 0 .747.17 1.419.512 2.016a3.803 3.803 0 001.44 1.408c.619.341 1.317.512 2.096.512.875 0 1.643-.192 2.304-.576v-3.488zm8.359 5.84c-.865 0-1.643-.187-2.337-.56A4.157 4.157 0 0184.58 47c-.383-.672-.576-1.43-.576-2.272 0-.843.192-1.595.576-2.256a4.157 4.157 0 011.633-1.552c.693-.373 1.472-.56 2.336-.56.874 0 1.658.187 2.351.56.694.373 1.232.89 1.616 1.552.395.661.593 1.413.593 2.256 0 .843-.198 1.6-.593 2.272a4.045 4.045 0 01-1.616 1.552c-.693.373-1.477.56-2.352.56zm0-1.712c.735 0 1.343-.245 1.823-.736.48-.49.72-1.136.72-1.936s-.24-1.445-.72-1.936c-.48-.49-1.088-.736-1.823-.736-.737 0-1.345.245-1.825.736-.469.49-.704 1.136-.704 1.936s.235 1.445.705 1.936c.48.49 1.088.736 1.824.736zm10.312 1.712c-.864 0-1.643-.187-2.336-.56A4.157 4.157 0 0194.893 47c-.384-.672-.576-1.43-.576-2.272 0-.843.192-1.595.576-2.256a4.157 4.157 0 011.632-1.552c.693-.373 1.472-.56 2.336-.56.875 0 1.659.187 2.352.56a4.04 4.04 0 011.616 1.552c.395.661.592 1.413.592 2.256 0 .843-.197 1.6-.592 2.272a4.047 4.047 0 01-1.616 1.552c-.693.373-1.477.56-2.352.56zm0-1.712c.736 0 1.344-.245 1.824-.736.48-.49.72-1.136.72-1.936s-.24-1.445-.72-1.936c-.48-.49-1.088-.736-1.824-.736s-1.344.245-1.824.736c-.47.49-.704 1.136-.704 1.936s.235 1.445.704 1.936c.48.49 1.088.736 1.824.736zm14.952-6.944v7.248c0 3.008-1.536 4.512-4.608 4.512-.821 0-1.6-.107-2.336-.32-.736-.203-1.344-.501-1.824-.896l.896-1.504c.374.31.843.555 1.408.736a5.486 5.486 0 001.744.288c.939 0 1.627-.213 2.064-.64.438-.427.656-1.077.656-1.952v-.448a3.283 3.283 0 01-1.248.848 4.394 4.394 0 01-1.616.288c-.81 0-1.546-.17-2.208-.512a4.041 4.041 0 01-1.552-1.472c-.373-.63-.56-1.35-.56-2.16s.187-1.525.56-2.144a3.924 3.924 0 011.552-1.456c.662-.341 1.398-.512 2.208-.512.619 0 1.179.101 1.68.304.512.203.939.512 1.28.928v-1.136h1.904zm-4.56 6.464c.758 0 1.376-.224 1.856-.672.491-.459.736-1.05.736-1.776 0-.715-.245-1.296-.736-1.744-.48-.448-1.098-.672-1.856-.672-.768 0-1.397.224-1.888.672-.48.448-.72 1.03-.72 1.744 0 .725.24 1.317.72 1.776.491.448 1.12.672 1.888.672zm7.19-9.792h2V49h-2V37.128zm12.657 7.648c0 .139-.011.336-.032.592h-6.704c.117.63.421 1.13.912 1.504.501.363 1.12.544 1.856.544.939 0 1.712-.31 2.32-.928l1.072 1.232a3.61 3.61 0 01-1.456 1.04c-.587.235-1.248.352-1.984.352-.939 0-1.765-.187-2.48-.56A4.104 4.104 0 01120.94 47c-.384-.672-.576-1.43-.576-2.272 0-.832.187-1.579.56-2.24a4.069 4.069 0 011.584-1.568c.672-.373 1.429-.56 2.272-.56.832 0 1.573.187 2.224.56.661.363 1.173.88 1.536 1.552.373.661.56 1.43.56 2.304zm-4.32-2.816c-.64 0-1.184.192-1.632.576-.437.373-.704.875-.8 1.504h4.848c-.085-.619-.347-1.12-.784-1.504-.437-.384-.981-.576-1.632-.576zm15.463-4.16c.971 0 1.813.16 2.528.48.725.32 1.28.779 1.664 1.376.384.597.576 1.307.576 2.128 0 .81-.192 1.52-.576 2.128-.384.597-.939 1.056-1.664 1.376-.715.32-1.557.48-2.528.48h-2.528V49h-2.08V37.8h4.608zm-.096 6.208c.907 0 1.595-.192 2.064-.576.469-.384.704-.933.704-1.648 0-.715-.235-1.264-.704-1.648-.469-.384-1.157-.576-2.064-.576h-2.432v4.448h2.432zm6.905-6.88h2V49h-2V37.128zm7.889 3.232c1.259 0 2.219.304 2.88.912.672.597 1.008 1.504 1.008 2.72V49h-1.888v-1.04c-.245.373-.597.661-1.056.864-.448.192-.992.288-1.632.288-.64 0-1.2-.107-1.68-.32-.48-.224-.853-.528-1.12-.912a2.388 2.388 0 01-.384-1.328c0-.768.283-1.381.848-1.84.576-.47 1.478-.704 2.704-.704h2.208v-.128c0-.597-.181-1.056-.544-1.376-.352-.32-.88-.48-1.584-.48-.48 0-.954.075-1.424.224-.458.15-.848.357-1.168.624l-.784-1.456c.448-.341.987-.603 1.616-.784a7.195 7.195 0 012-.272zm-.272 7.296c.502 0 .944-.112 1.328-.336.395-.235.672-.565.832-.992v-.992h-2.064c-1.152 0-1.728.379-1.728 1.136 0 .363.144.65.432.864.288.213.688.32 1.2.32zm14.571-7.2l-4 9.232c-.374.928-.827 1.579-1.36 1.952-.534.384-1.179.576-1.936.576a3.99 3.99 0 01-1.264-.208c-.416-.139-.758-.33-1.024-.576l.8-1.472c.192.181.416.325.672.432.266.107.533.16.8.16.352 0 .64-.09.864-.272.234-.181.448-.485.64-.912l.144-.336-3.728-8.576h2.08l2.688 6.32 2.704-6.32h1.92zm-113.365-8.86l-8.119-4.681-6.686 6.553 6.209 5.617 8.596-5.149c.477-.468.955-.936.955-1.404-.478-.468-.478-.936-.955-.936zm-9.552-5.617l-9.074-5.15L17.19 11l22.446 21.064 6.686-6.085zM17.67 55l19.58-10.298 8.118-4.68-5.73-5.618L17.67 55zm-1.434-43.064v42.596l22.446-21.064-22.446-21.532z" fill="#fff"/></svg>